<?xml version="1.0" encoding="utf-8"?>
<!-- Generator: Adobe Illustrator 25.4.1, SVG Export Plug-In . SVG Version: 6.00 Build 0)  -->
<svg version="1.1" id="_x3C_Layer_x3E_" xmlns="http://www.w3.org/2000/svg" xmlns:xlink="http://www.w3.org/1999/xlink" x="0px"
	 y="0px" viewBox="0 0 3000 2000" style="enable-background:new 0 0 3000 2000;" xml:space="preserve">
<style type="text/css">
	.st0{fill:#82B378;}
	.st1{opacity:0.2;fill:#80B4FF;}
	.st2{fill:#AFCDFB;}
	.st3{opacity:0.8;}
	.st4{fill:#F8FCFF;}
	.st5{opacity:0.2;}
	.st6{opacity:0.4;fill:#80B4FF;}
	.st7{opacity:0.4;}
	.st8{fill:#80B4FF;}
	.st9{fill:#BFE2A8;}
	.st10{fill:#DAED8E;}
	.st11{fill:#E4F49D;}
	.st12{fill:#ED7D2B;}
	.st13{fill:#2C3A64;}
	.st14{fill:#35488B;}
	.st15{fill:#FFB27D;}
	.st16{fill:#ED975D;}
	.st17{fill:#F99746;}
	.st18{fill:#873F04;}
	.st19{fill:#FFFFFF;}
	.st20{fill:#233862;}
	.st21{fill:#1C468A;}
</style>
<g>
	<path class="st0" d="M922.6,1692.9h-45.1c-2.4-2.1,1.7-6.8,5.9-7.1c1.9-0.1,4.2,0.3,6.9,0.8c0.6-8.3,4.2-45.8,17.5-44.3
		c15,1.7,0,16.5-4.2,25.2c-3.1,6.5-6.5,15.8-8,20.2c1.2,0.3,2.5,0.5,3.8,0.8c2-6.2,9.4-26.9,18.8-25.7c11.1,1.4,6.6,9.7-1.2,14.7
		c-5.8,3.6-12.8,8.8-16.2,11.3c2.8,0.5,5.8,0.8,8.8,0.7C917.4,1689.4,921.2,1691.7,922.6,1692.9z"/>
</g>
<g>
	<path class="st0" d="M2478.7,1754.8l-359.6-0.3l-78.7,0c11.5-9.4,26-19.8,23.8-32c-4.8-27-204.4-37.1-124.3-71.6
		c5.5-2.4,11.5-4.6,17.9-6.6c0.5-0.1,0.9-0.3,1.3-0.4c18.3-5.7,39.4-9.8,61.2-12.9c0.6-0.1,1.2-0.2,1.8-0.3
		c77.9-10.7,165-7.5,169.3-7.3c0.1,0,0.2,0,0.2,0c29.2,2.3,254.2-13.5,281.2,27C2490.9,1677.7,2484.6,1726.7,2478.7,1754.8z"/>
</g>
<path class="st1" d="M527.7,1339.7l807.8,121.2l156.1-82.6c0,0-95.4-252.3-158.4-290.5c-63-38.2-101.3,24.8-175.5,69
	c-74.3,44.2-119.3,3-200.3-112.4c-81-115.5-126-35.3-186.8-26.3c-60.8,9-195.8-173.3-243-203.2c-42.6-27-242.1,51.4-280.7,67
	c-0.7,1.4-1.5,2.9-2.2,4.3c-45.5,91-67.1,187-69,285.2L527.7,1339.7z"/>
<path class="st2" d="M177.5,1135.2l1074.4,183.4c-0.6-0.2-10.7-3.1-22.1-19.4c-11.8-16.8-51.8-36-123.8-34.9
	c-72,1.1-155.3-72.4-197.3-106.1c-42-33.8-149.3-21.8-199.5-18.8c-50.2,3-99.7-15.8-132.8-42c-33-26.3-72.8-22-116.7-27.1
	c-43.9-5.1-38.8-42.2-94.5-65.4c-48.7-20.3-142.9-5.1-165.7-0.9C187.8,1047.1,180.5,1090.9,177.5,1135.2z"/>
<g class="st3">
	<path class="st4" d="M731.2,856c0,0,31.5-63.8,106.7-56.7c0,0,109.3-106.4,225.8-14.2c0,0,123.9-22.8,215.6,19.8
		c61.2,28.4,81.4,58.2,81.4,58.2L731.2,856z"/>
</g>
<g class="st3">
	<path class="st4" d="M661,661.4c0,0,19.9-42.7,67.4-38c0,0,69-71.2,142.7-9.5c0,0,78.3-15.3,136.2,13.2c38.6,19,51.4,39,51.4,39
		L661,661.4z"/>
</g>
<g class="st5">
	<path class="st0" d="M1282.2,1340.1c0,0-418.8-47.6-588.3-109.1c-169.5-61.5-181.8-43.4-140.8-10.8
		c41,32.6,277.7,109.6,179.6,118.3c-98.1,8.7-274.6-17-341.1,51.1c-66.5,68.1-171,129.2,0,142.5c171,13.2,670.4-80.6,670.4-80.6
		L1282.2,1340.1z"/>
</g>
<g>
	<path class="st6" d="M2582.2,908c-15.9,6.5-34.9,12.7-48.6,8.4c-25.6-8.1-73.2-118.4-116.5-201.1v0c-25.7-49-50-87.7-67.9-87.8
		c-17.8-0.1-48.9,46.9-79.2,100.3c-38,66.9-74.9,144-83.1,151.5c-14.7,13.5-66.6-68-102-64.6c-37.8,3.6-136.7,346.7-160.3,363.6
		c-23.6,16.9-85-83.9-107.5-88.4c-22.5-4.5-279.7,307.8-279.7,307.8s101.8,75.7,260.7,62.2c118-10,637.2-179.6,878.7-260
		C2571,1091.2,2568.3,984.5,2582.2,908z"/>
	<g class="st7">
		<path class="st8" d="M1798,1346.7c0,0,64.1-116.1,74.2-97.5c10.1,18.6,38.8,27.8,52.3,8c13.5-19.8,177.6-197.5,181.6-153.4
			c4,44.2-63.5,154-36.5,159c27,5,175.5-143.5,227.8-113.1c52.3,30.4,111.4-25.3,167.1-23.6c55.7,1.7,54,130.1,54,130.1L2068,1394.3
			l-212.6,10.1l-101.2-11.8L1798,1346.7z"/>
	</g>
	<path class="st8" d="M2679.7,1203c-21-21.2-38.1-42.4-51.8-63.3c-26.7,13.2-65.7,14.9-121.2,13.2c-76.5-2.3-113.6,79.9-146.3,96.8
		c-32.6,16.9-79.9,0-158.6,7.5c-78.8,7.5-108,71.2-175.5,73.5s-121.5,55.9-121.5,55.9c66.6,3.7,660.4-116.9,811.8-147.9
		C2704.1,1226.9,2691.7,1215.1,2679.7,1203z"/>
	<path class="st9" d="M477.3,1754.8h2188.2c94.2,0,174.3-68.5,189.1-161.5c30.8-193.9-54-274.8-137.7-354.3c0,0-0.7-0.7-1.1-1
		c-174.8-1.4-473.5,71.8-712.2,130.8c-286.9,70.9-680.5-16.3-1107.1-151.9c-329.3-104.7-606.7-114.1-716.1-113
		c-9.5,82.6-4.1,167.3,13.7,252.1c15.4,73.2,38.7,140.4,63.2,198C294.8,1641.8,341.7,1754.8,477.3,1754.8z"/>
	<g class="st3">
		<path class="st4" d="M1504.4,622.5c0,0,35.2-64.8,119.4-57.6c0,0,122.2-108,252.5-14.4c0,0,138.5-23.2,241.1,20.1
			c68.4,28.9,91,59.1,91,59.1L1504.4,622.5z"/>
	</g>
	<g class="st3">
		<path class="st4" d="M1924.8,506.2c0,0,22.9-55.3,77.6-49.2c0,0,79.4-92.2,164.1-12.3c0,0,90-19.8,156.7,17.1
			c44.5,24.6,59.1,50.5,59.1,50.5L1924.8,506.2z"/>
	</g>
	<g class="st3">
		<path class="st4" d="M2417,715.3L2417,715.3c0,0-39-30.4-48-39.6c-9-9.2-20.3,12.9-27,22.4c-6.8,9.4-7.5-19.9-7.5-28.9
			c0-9-64.6,58.7-64.6,58.7l0,0c30.3-53.4,61.4-100.4,79.2-100.3C2367,627.6,2391.4,666.3,2417,715.3z"/>
	</g>
	<g>
		<path class="st4" d="M2026.7,919.5c0,0,46.1-122.1,70.1-118.4c24,3.8,56.8,59.1,56.8,59.1s-33.4-28.6-39.6-19
			c-6.2,9.6-7.3,28.5-18,19c-10.7-9.4-17.4-10.8-23.1,0C2067.3,871.1,2026.7,919.5,2026.7,919.5z"/>
	</g>
	<path class="st10" d="M2744.5,1265.6c-155.9,21.7-524.1,76.7-578.8,121.1c-69.7,56.5,126,61,256.5,52s306-31.6,263.3,9
		c-42.8,40.5-83.3,69,9,75c44.2,2.9,117,5.5,166.2,7.6C2865,1399.4,2808.3,1328.4,2744.5,1265.6z"/>
</g>
<path class="st0" d="M414.2,1222.7c42.9,0,91-1.1,77.5-12.4c-13.5-11.2-79.9-13.5-111.4-33.8c-31.5-20.2-60.6-5-101.1-24
	c-34.2-16.1-87.2-5-102.7-1.2c-2,42.5-0.2,85.4,5,128.6c12-0.9,50-3.7,108.9-5.6c72-2.3,54-22.5,32.9-36
	C302.1,1224.9,371.4,1222.7,414.2,1222.7z"/>
<path class="st11" d="M1784,1754.8c-286.3-243.6-1037.6-193.1-943.6-239.9c97-48.3,415,18,558.1,5.9c143.1-12.1,58.3-51.7,58.3-51.7
	c-241.7-92.3-958-62.6-1246.1-46.5c13.5,47.5,29.8,91.6,46.7,131.2c37.5,87.9,84.4,200.9,220,200.9H1784L1784,1754.8z"/>
<g>
	<g>
		<g>
			<path class="st0" d="M287.2,1406.7c0,0,27.1-115.5,60.1-115.5c32.9,0-30,131.1-30,131.1L287.2,1406.7z"/>
		</g>
		<g>
			<path class="st0" d="M344,1411.2c0,0,56.6-72.4,90.3-54.5c33.7,17.9-77.5,71.4-77.5,71.4L344,1411.2z"/>
		</g>
		<g>
			<path class="st0" d="M643.9,1677.3c0-6.5-3.9-103.1,42.6-108.3C733,1563.8,643.9,1677.3,643.9,1677.3z"/>
		</g>
		<g>
			<path class="st0" d="M677.5,1677.3c0,0,25.8-47,49.1-43.1C749.8,1638.1,677.5,1677.3,677.5,1677.3z"/>
		</g>
		<g>
			<path class="st0" d="M627.1,1655.6c3.9-18.8,18.1-150.6-10.3-148C588.4,1510.3,627.1,1655.6,627.1,1655.6z"/>
		</g>
	</g>
	<path class="st0" d="M630.4,1631.4c-43.1-12.8-88.1-18.9-111.5-32.5c-72.6-42.4-5.8-194.3-228.7-204c-30.7-1.3-60.2,1.1-85.8,4.9
		c14.6,56.3,33.3,108.3,52.9,154.1c37.5,87.9,84.4,200.9,220,200.9h295.5C762,1729.8,751.9,1666.7,630.4,1631.4z"/>
</g>
<g>
	<path class="st0" d="M824.1,1436.5h-69.8c-3.7-3.2,2.6-10.5,9.2-11c2.9-0.2,6.5,0.4,10.6,1.3c1-12.9,6.4-70.8,27.1-68.5
		c23.2,2.6,0,25.5-6.6,39.1c-4.9,10-10,24.4-12.3,31.2c1.9,0.4,3.8,0.8,5.8,1.2c3.1-9.6,14.5-41.7,29.1-39.8
		c17.1,2.2,10.2,15.1-1.9,22.7c-8.9,5.6-19.8,13.6-25,17.5c4.4,0.7,9,1.2,13.6,1.1C816,1431,821.8,1434.6,824.1,1436.5z"/>
</g>
<g>
	<path class="st12" d="M1340.5,823c0,0,87.4,8.7,113.7,2.2c26.3-6.5,91.4-58.5,91.4-58.5l18.2,13.5c0,0-48.1,89.8-83.5,102.7
		c-35.3,12.9-131.3,14.2-131.3,14.2L1340.5,823z"/>
</g>
<g>
	<g>
		<path class="st13" d="M1024,1610.1c0,0-17.3,16.2-13.8,27.6c3.4,11.4,19.1,19,21.3,32.9c2.2,14,10.7,21.5,18.3,21.5
			c7.6,0,36.3-0.2,36.3-0.2s5.6-9.8-8-12.7s-18.7-19.3-18-34.5c0.8-15.2-1.4-35.5-1.4-35.5l-28.8-6.6L1024,1610.1z"/>
	</g>
	<g>
		<path class="st13" d="M1237,1650.8c0,0-3.9,36.6,3.8,40.4l98.2-0.4c0,0,0.1-11.6-15.5-14.1c-15.7-2.5-43.2-11.7-48-32.4
			C1270.7,1623.5,1237,1650.8,1237,1650.8z"/>
	</g>
	<g>
		<path class="st14" d="M1316.9,1133.6c0,0-4.9,64.2-10.5,141.3c-7.7,104.8-17,233.4-17.9,257.8c-1.5,42.3-8,110-8,110
			s-16,16.2-48.2,9.5c0,0-29.1-96.5-37.7-198.7c-0.1-1.7-0.3-3.4-0.4-5c-8.1-104-20.9-323.1-20.9-323.1L1316.9,1133.6z"/>
	</g>
	<g>
		<path class="st13" d="M1316.9,1133.6c0,0-4.9,64.2-10.5,141.3l-111.8,178.7c-0.1-1.7-0.3-3.4-0.4-5
			c-8.1-104-20.9-323.1-20.9-323.1L1316.9,1133.6z"/>
	</g>
	<g>
		<path class="st14" d="M1293.5,1141.3c0,0-91.6,232.7-152,342.1c-60.4,109.4-79.3,140-79.3,140s-35-13.8-38.2-23.3
			c0,0,22.3-210.8,62.9-262.4c22.9-29.1,49.6-116.4,50.7-146.8c1.1-30.5,7.8-90.8,7.8-90.8L1293.5,1141.3z"/>
	</g>
</g>
<g>
	<g>
		<path class="st15" d="M1282.5,791.4c0,0,83.8,43.5,74,31.5c-3.1-3.8-0.2-17.4,1.7-21.9c0.9-2.2,1.7-4.3,2.5-6.2
			c5.5-14.1,7.6-22.3,7.6-22.3l-21.7-28.7l-14.7-19.5c-1.8,8.3-4.3,15.6-7.2,22.2C1309.5,780,1282.5,791.4,1282.5,791.4z"/>
	</g>
	<g>
		<path class="st16" d="M1324.7,746.4c0,0,5.2,33.2,36,48.3c5.5-14.1,7.6-22.3,7.6-22.3l-21.7-28.7
			C1332.6,743.6,1324.7,746.4,1324.7,746.4z"/>
	</g>
</g>
<g>
	<path class="st17" d="M1131.5,1145c26.7,29.6,201.2,51.8,196.4,29.5c-1.8-8.5-4.8-23.6-5.6-44.4c-0.2-4.9-0.2-10.1-0.1-15.6
		c0.4-20.5,3-45.2,10.1-73.7c3.3-13.4,7.6-27.6,13.1-42.6c1.3-3.5,2.6-7.1,4.1-10.7c7.2-18.2,12.9-37.2,16.8-55.6
		c7.4-35.3,8.1-68.3-0.5-88.7c0-0.1-8.3-21.6-8.4-21.8c-37.4-11.9-51.7-47.4-51.7-47.4s-116.9,32.2-164.2,201.4
		C1141.5,975.5,1108.3,1119.1,1131.5,1145z"/>
</g>
<g>
	<path class="st12" d="M1257.1,894.1c0,0,11.5,98.1,75.1,146.8c3.3-13.4,7.6-27.6,13.1-42.6c-6.9-23.2-14.8-42.2-21.8-50.3
		C1295,915,1257.1,894.1,1257.1,894.1z"/>
</g>
<g>
	<path class="st15" d="M1383.7,779.4c0,0-60.6-2.9-58.2-40.6c2.4-37.7-3.8-63.4,35-63.2c38.8,0.3,45.3,15.1,47.6,27.9
		C1410.4,716.3,1399.5,779.1,1383.7,779.4z"/>
</g>
<g>
	<path class="st18" d="M1297.2,679.7c-0.6-0.6-2-1-4.9-1c0,0,2.2-1.7,5.3-2c0.3-4.2,1.8-11.6,8.7-14c0,0-3.6,2.3-3.7,6.8
		c7.4-9.1,24.2-16.7,72.5-16.8c63.7-0.1,46.2,42.7,38.4,48.3c-7.8,5.6-29.5-6.2-44.7-3.7c-15.2,2.5-16.2,25.1-21.1,28.6
		c-4.9,3.5-3.3-2.1-10.6-4.7c-7.3-2.6-7,9.2-4.3,16.7c2.7,7.5-6.1,18.4-6.1,18.4s0,0-10.6-9.8c-10.6-9.8-23.5-54.1-19.8-64.1
		C1296.6,681.5,1296.9,680.6,1297.2,679.7z"/>
</g>
<g>
	<path class="st19" d="M1374.2,756.9c0,0,2,5.3,4.4,6.4c2.5,1.1,10.6,1.7,12.2,0.7c1.6-1.1,4.3-5.1,4.3-5.1
		S1382.1,755.3,1374.2,756.9z"/>
</g>
<g>
	<g>
		<g>
			
				<rect x="1633.7" y="714.8" transform="matrix(-1 4.379235e-03 -4.379235e-03 -1 3284.6125 1496.8744)" class="st20" width="13.8" height="74.5"/>
		</g>
		<g>
			
				<rect x="1573.7" y="716.2" transform="matrix(-1 4.473352e-03 -4.473352e-03 -1 3210.8196 1496.3435)" class="st21" width="60" height="71.2"/>
		</g>
		<g>
			
				<rect x="1513.8" y="718.1" transform="matrix(-1 4.490012e-03 -4.490012e-03 -1 3091.0046 1497.1234)" class="st21" width="60" height="67.9"/>
		</g>
		<g>
			
				<rect x="1453.8" y="727.5" transform="matrix(-1 4.490050e-03 -4.490050e-03 -1 2970.9626 1497.9331)" class="st21" width="60" height="49.6"/>
		</g>
		<g>
			<path class="st20" d="M1413.6,807l57.2-0.3l-0.5-100.5l-74,0.3l0.4,83.7C1396.8,799.6,1404.4,807.1,1413.6,807z"/>
		</g>
		<g>
			
				<rect x="1389.7" y="715.7" transform="matrix(-1 4.341239e-03 -4.341239e-03 -1 2789.3196 1449.7823)" class="st20" width="6.8" height="24.4"/>
		</g>
		<g>
			
				<rect x="1386.2" y="714.1" transform="matrix(-1 4.356811e-03 -4.356811e-03 -1 2782.49 1449.8048)" class="st20" width="6.8" height="27.7"/>
		</g>
		<g>
			
				<rect x="1426.3" y="693.7" transform="matrix(-1 4.477031e-03 -4.477031e-03 -1 2868.8308 1393.7524)" class="st20" width="13.1" height="12.8"/>
		</g>
		<g>
			
				<rect x="1409.6" y="681" transform="matrix(-1 4.484844e-03 -4.484844e-03 -1 2869.77 1374.635)" class="st20" width="47.6" height="19.1"/>
		</g>
	</g>
</g>
<g>
	<path class="st15" d="M1416.8,829.1c0,0,8.6-32.3,11.4-36.9c2.9-4.7,18.9-17.9,20.4-17.4c1.5,0.5,2.2,1.9,0.8,4.9
		c-1.3,3-7.7,12-6.2,12c1.5,0,21.6-24.9,27.3-22.3c5.8,2.6,8.1,23.3,2.1,36.5c-6.1,13.2-34.3,30.6-35.6,32.7
		C1425.8,856.2,1416.8,829.1,1416.8,829.1z"/>
</g>
<g>
	<path class="st17" d="M1414.9,824.2c0,0,24.6,9,22.2,23.8c-0.9,5.4-50.3,169.7-79.3,171.7c-29,1.9-122-131.7-115.8-169
		c6.2-37.2,48.8-54.7,64.2-46.6c15.5,8.1,32.5,116.7,38.9,114.9C1351.4,917.1,1414.9,824.2,1414.9,824.2z"/>
</g>
<g>
	<path class="st15" d="M1591.4,706.4c0,0,19.6,14,11.9,17.6c-7.7,3.7-24.2,3.6-31.6-3.5C1564.2,713.3,1577.3,703.7,1591.4,706.4z"/>
</g>
<g>
	<g>
		<path class="st0" d="M1868,1530.6c9.9,4.4,45.7,2.2,47-0.6c1.2-2.8-21.3-30.8-31.2-35.1s-21.4,0.1-25.8,10
			C1853.6,1514.7,1858.1,1526.2,1868,1530.6z"/>
	</g>
	<g>
		<path class="st0" d="M1957.6,1550.4c-5.9,9-9.5,44.8-6.9,46.5s33.8-16,39.7-25.1c5.9-9,3.3-21.2-5.7-27.1
			C1975.6,1538.8,1963.5,1541.4,1957.6,1550.4z"/>
	</g>
	<g>
		<path class="st0" d="M1907.3,1619c10.2,3.6,45.8-1.3,46.8-4.2c1-2.9-23.6-29.1-33.8-32.7s-21.4,1.7-24.9,11.9
			C1891.8,1604.2,1897.1,1615.4,1907.3,1619z"/>
	</g>
	<g>
		<g>
			<path class="st0" d="M1958.3,1655.2c0-0.8-1.5-82-44.6-125.2l1-1c43.5,43.6,45,125.3,45,126.1L1958.3,1655.2z"/>
		</g>
	</g>
</g>
<g>
	<g>
		<g>
			<path class="st0" d="M2024.8,1657.6l-1.9-0.3c-7.4-95.7-36.6-164.4-37-165.4l1.7-0.7C1987.9,1492.2,2017.4,1561.3,2024.8,1657.6z
				"/>
		</g>
	</g>
	<g>
		<g>
			<path class="st19" d="M1966,1482.3c3.6,4.1,20.5,10.7,21.7,9.6c1.2-1-3.3-18.6-6.9-22.7s-9.8-4.5-13.9-0.9
				C1962.8,1472,1962.4,1478.3,1966,1482.3z"/>
		</g>
		<g>
			<path class="st19" d="M1991.9,1468.1c-3.3,4.4-6.2,22.2-5,23.2c1.2,0.9,17.5-7,20.8-11.4c3.3-4.4,2.4-10.5-2-13.8
				C2001.3,1462.8,1995.1,1463.7,1991.9,1468.1z"/>
		</g>
		<g>
			<path class="st19" d="M2011.3,1487.1c-5.3-1.4-23,2.4-23.4,3.9c-0.4,1.5,12.9,13.7,18.2,15.2c5.3,1.4,10.7-1.7,12.1-6.9
				C2019.6,1494,2016.5,1488.5,2011.3,1487.1z"/>
		</g>
		<g>
			<path class="st19" d="M1999.3,1510.8c-0.5-5.4-10.3-20.6-11.9-20.5s-8.3,17-7.7,22.4c0.5,5.4,5.3,9.4,10.8,8.9
				C1995.9,1521,1999.8,1516.2,1999.3,1510.8z"/>
		</g>
		<g>
			<path class="st19" d="M1972.4,1509.6c4.8-2.5,15.2-17.4,14.5-18.7c-0.7-1.4-18.8-1.2-23.7,1.3s-6.7,8.5-4.1,13.3
				S1967.6,1512.2,1972.4,1509.6z"/>
		</g>
		<g>
			<path class="st17" d="M1983.7,1490.4c0.3-1.8,1.9-3,3.7-2.7c1.8,0.3,3,1.9,2.7,3.7c-0.3,1.8-1.9,3-3.7,2.7
				C1984.7,1493.8,1983.4,1492.2,1983.7,1490.4z"/>
		</g>
	</g>
	<g>
		<path class="st0" d="M2024.2,1559.8c-5.4,6.6-11.1,34.2-9.3,35.8c1.9,1.5,27.8-9.8,33.1-16.4c5.4-6.6,4.4-16.3-2.2-21.6
			C2039.3,1552.2,2029.6,1553.2,2024.2,1559.8z"/>
	</g>
</g>
<g>
	<path class="st20" d="M1375.2,858.8c-9.1,0-18.3-7.8-27.5-23.1c-23-38.3-44.2-59-44.4-59.2c-1.3-1.3-1.4-3.4-0.1-4.7
		c1.3-1.3,3.4-1.4,4.7-0.1c0.9,0.9,22,21.4,45.5,60.5c5.9,9.9,14.8,21.3,23.4,19.8c7.1-1.3,14.5-11.2,20.7-27.9
		c5-13.5,7.6-26.8,7.6-26.9c0.3-1.8,2.1-3,3.9-2.6c1.8,0.3,3,2.1,2.6,3.9c-1.1,5.7-11.4,56.1-33.7,60
		C1377.1,858.7,1376.1,858.8,1375.2,858.8z"/>
</g>
</svg>
